<svg width="442" height="442" viewBox="0 0 442 442" fill="none" xmlns="http://www.w3.org/2000/svg">
<g clip-path="url(#clip0)">
<path d="M285.2 282.4C311.6 263.2 327.6 232.8 327.6 200.8C327.6 186.4 326.8 174.4 325.2 164H344.4C349.2 164 353.2 160 353.2 155.2V116.8C353.2 112 349.2 108 344.4 108H329.2C321.2 68 291.6 35.2 252.4 24V8.8C252.4 4 248.4 0 243.6 0H199.6C194.8 0 190.8 4 190.8 8.8V24C151.6 35.2 122 68 114 108H98.8C94 108 90 112 90 116.8V155.2C90 160 94 164 98.8 164H117.2C115.6 174.4 114.8 187.2 114.8 200.8C114.8 232.8 130.8 263.2 157.2 282.4C92.4 307.2 48.4 366.4 48.4 432.8C48.4 437.6 52.4 441.6 57.2 441.6H384.4C389.2 441.6 393.2 437.6 393.2 432.8C393.2 366.4 349.2 307.2 285.2 282.4ZM106.8 146.4V126.4H121.2C123.6 126.4 125.2 125.6 126.8 124C127.6 123.2 129.2 120.8 130 118.4C134 84 158 55.2 190 43.2V99.2C190 104 194 108 198.8 108C203.6 108 207.6 104 207.6 99.2V17.6H234V98.4C234 103.2 238 107.2 242.8 107.2C247.6 107.2 251.6 103.2 251.6 98.4V43.2C283.6 55.2 307.6 84 311.6 118.4C311.6 120.8 313.2 123.2 314.8 124C318 126.4 319.6 126.4 321.2 126.4H335.6V146.4H314.8H221.2H127.6H106.8ZM66.8 423.2C71.6 362.4 117.2 309.6 181.2 293.6C185.2 292.8 187.6 289.6 188.4 285.6C188.4 281.6 186.8 278.4 182.8 276.8C152.4 262.4 133.2 233.6 133.2 200.8C133.2 186.4 134 174.4 135.6 164H221.2H306.8C308.4 174.4 309.2 186.4 309.2 200.8C309.2 233.6 290 262.4 259.6 276.8C256.4 278.4 254 282.4 254 285.6C254 289.6 257.2 292.8 261.2 293.6C325.2 309.6 371.6 362.4 375.6 423.2H66.8Z" fill="white"/>
</g>
<defs>
<clipPath id="clip0">
<rect width="441.6" height="441.6" fill="white"/>
</clipPath>
</defs>
</svg>
