<svg id="Capa_1" enable-background="new 0 0 512 512" height="512" viewBox="0 0 512 512" width="512" xmlns="http://www.w3.org/2000/svg"><g><g><g><path d="m489.5 319.683h-28v-130.558c0-6.86-5.791-12.442-12.908-12.442h-385.184c-7.118 0-12.908 5.582-12.908 12.442v130.558h-28v-130.558c0-22.3 18.352-40.442 40.908-40.442h385.184c22.557 0 40.908 18.143 40.908 40.442z" fill="#986b54"/></g></g><g><path d="m229.708 329.778h-55.516v-182.431l5-10.617h44.516l6 10.568z" fill="#ade092"/></g><g><path d="m210.174 136.73v.357 192.691h19.534v-182.48l-6-10.568z" fill="#6dd4a1"/></g><g><path d="m378.783 223.3h42v41.172h-42z" fill="#dae4ea" transform="matrix(.707 .707 -.707 .707 289.547 -211.256)"/></g><g><path d="m382.183 230.096h20.779v42h-20.779z" fill="#b9c1cb" transform="matrix(.707 -.707 .707 .707 -62.57 351.135)"/></g><g><g><path d="m448.592 148.683h-12.938c22.557 0 40.908 18.143 40.908 40.442v130.558h12.938v-130.558c0-22.299-18.352-40.442-40.908-40.442z" fill="#845c52"/></g></g><g><path d="m65.76 102.181 61.494 213.022-59.107 17.063-61.494-213.023c-1.072-3.714 1.07-7.595 4.784-8.667l45.656-13.18c3.714-1.072 7.595 1.07 8.667 4.785z" fill="#ecbe6b"/></g><g><path d="m107.578 320.882 19.675-5.68-61.493-213.021c-1.072-3.714-4.952-5.856-8.667-4.784l-12.95 3.738z" fill="#e7a561"/></g><g><g><path d="m43.592 247.207-4.16-14.412 28.24-8.347c3.99-1.179 8.178 1.115 9.332 5.112 1.144 3.962-1.126 8.104-5.08 9.272z" fill="#e4936b"/></g><g><path d="m54.999 286.717-4.16-14.412 16.245-4.858c3.995-1.195 8.198 1.099 9.354 5.106 1.141 3.953-1.115 8.087-5.057 9.265z" fill="#e4936b"/></g><g><path d="m20.781 168.183-4.16-14.412 28.239-8.346c3.99-1.179 8.177 1.115 9.331 5.112 1.144 3.962-1.126 8.104-5.08 9.272z" fill="#e4936b"/></g><g><path d="m32.187 207.695-4.161-14.412 16.245-4.859c3.995-1.195 8.198 1.099 9.355 5.105 1.141 3.953-1.115 8.087-5.057 9.266z" fill="#e4936b"/></g></g><g><path d="m110.311 93.441h29.854v108.079h-29.854z" fill="#dae4ea"/></g><g><path d="m125.238 93.441h14.927v108.079h-14.927z" fill="#b9c1cb"/></g><g><path d="m162.735 300.815c0-18.502-3.625-35.367-9.579-48.132-2.246-4.816-3.449-10.048-3.449-15.362v-45.833c0-2.761-2.239-5-5-5h-38.937c-2.761 0-5 2.239-5 5v45.833c0 5.314-1.203 10.546-3.449 15.362-5.954 12.766-9.579 29.63-9.579 48.132s3.625 35.366 9.579 48.132c2.246 4.816 3.449 10.048 3.449 15.362v38.192h48.938v-38.192c0-5.315 1.203-10.546 3.449-15.362 5.953-12.766 9.578-29.63 9.578-48.132z" fill="#057096"/></g><g><path d="m153.156 252.682c-2.246-4.816-3.449-10.048-3.449-15.362v-45.833c0-2.761-2.239-5-5-5h-21.953c2.761 0 5 2.239 5 5v45.833c0 5.315 1.203 10.546 3.449 15.362 5.954 12.766 9.579 29.63 9.579 48.132s-3.625 35.366-9.579 48.132c-2.246 4.816-3.449 10.048-3.449 15.362v38.192h21.953v-38.19c0-5.314 1.203-10.546 3.449-15.362 5.954-12.766 9.579-29.63 9.579-48.132s-3.625-35.368-9.579-48.134z" fill="#055e7f"/></g><g><path d="m133.019 29.328h-15.974c-2.673 0-5.023 1.768-5.765 4.336l-10.768 37.301c-.314 1.087-.314 2.241 0 3.328l10.768 37.301c.602 2.087 2.272 3.626 4.309 4.137.47.118 4.504-.093 4.504-.093l5.144.292h7.781c2.673 0 5.023-1.768 5.765-4.336l10.768-37.301c.314-1.087.314-2.241 0-3.328l-10.768-37.301c-.741-2.568-3.091-4.336-5.764-4.336z" fill="#f6f9f9"/></g><g><path d="m149.551 70.965-10.768-37.301c-.741-2.568-3.092-4.336-5.765-4.336h-15.974c-.501 0-.985.081-1.455.199 2.036.511 3.707 2.051 4.309 4.137l10.768 37.301c.314 1.087.314 2.241 0 3.328l-10.768 37.301c-.602 2.086-2.273 3.626-4.309 4.137.47.118.954.199 1.455.199h15.974c2.673 0 5.023-1.768 5.765-4.336l10.768-37.301c.314-1.087.314-2.241 0-3.328z" fill="#dae4ea"/></g><g><path d="m237.906 168.376h52.186v245.455h-52.186z" fill="#055e7f" transform="matrix(.707 .707 -.707 .707 283.165 -101.413)"/></g><g><path d="m152.346 291.746h245.455v20.863h-245.455z" fill="#004c67" transform="matrix(.707 -.707 .707 .707 -133.105 283.012)"/></g><g><path d="m421.881 192.532-70.805-70.805c-20.18-20.18-49.965-27.356-77.121-18.579l-21.04 6.8c-3.056.988-3.05 5.313.009 6.292l26.959 8.626c12.421 3.974 23.712 10.858 32.933 20.08l9.115 9.115c1.562 1.562 1.562 4.095 0 5.657l-32.815 32.815c-3.905 3.905-3.905 10.237 0 14.142l59.311 59.311c3.905 3.905 10.237 3.905 14.142 0l59.311-59.311c3.906-3.906 3.906-10.238.001-14.143z" fill="#dae4ea"/></g><g><g><path d="m413.617 184.268-51.047 51.047c-3.905 3.905-10.237 3.905-14.142 0l-51.047-51.047-8.264 8.264c-3.905 3.905-3.905 10.237 0 14.142l59.311 59.311c3.905 3.905 10.237 3.905 14.142 0l59.311-59.311c3.905-3.905 3.905-10.237 0-14.142z" fill="#b9c1cb"/></g></g><g><path d="m435.883 326.326-39.434-39.434c-3.905-3.905-3.905-10.237 0-14.142l1.542-1.542 5.509-.601.95-5.857 24.197-24.197c3.905-3.905 10.237-3.905 14.142 0l39.434 39.434c3.905 3.905 3.905 10.237 0 14.142l-32.196 32.196c-3.907 3.906-10.238 3.906-14.144.001z" fill="#dae4ea"/></g><g><path d="m474.222 271.987-24.197 24.197c-3.905 3.905-10.237 3.905-14.142 0l-31.433-31.434-8 8c-3.905 3.905-3.905 10.237 0 14.142l39.434 39.434c3.905 3.905 10.237 3.905 14.142 0l32.196-32.196c3.905-3.905 3.905-10.237 0-14.142z" fill="#b9c1cb"/></g><g><path d="m497 482.672h-482c-8.284 0-15-6.716-15-15v-152.549c0-8.284 6.716-15 15-15h482c8.284 0 15 6.716 15 15v152.549c0 8.285-6.716 15-15 15z" fill="#986b54"/></g><g><path d="m497 300.123h-25.488v127.062c0 8.284-6.716 15-15 15h-456.512v25.488c0 8.284 6.716 15 15 15h482c8.284 0 15-6.716 15-15v-152.55c0-8.284-6.716-15-15-15z" fill="#845c52"/></g><g><g><path d="m0 328.13h512v15h-512z" fill="#785252"/></g><g><path d="m0 364.984h512v15h-512z" fill="#785252"/></g><g><path d="m0 401.84h512v15h-512z" fill="#785252"/></g><g><path d="m0 438.695h512v15h-512z" fill="#785252"/></g></g><g><ellipse cx="256" cy="391.398" fill="#f9ef63" rx="114.875" ry="46.61"/></g><g><path d="m314.658 351.317c16.731 8.097 26.811 18.533 26.811 29.926 0 25.742-51.431 46.61-114.875 46.61-21.431 0-41.487-2.384-58.658-6.53 21.073 10.198 52.699 16.684 88.064 16.684 63.444 0 114.875-20.868 114.875-46.61 0-17.046-22.557-31.953-56.217-40.08z" fill="#f4dd45"/></g><g><g><path d="m288.632 382.744h-65.264c-4.142 0-7.5-3.357-7.5-7.5s3.358-7.5 7.5-7.5h65.264c4.143 0 7.5 3.357 7.5 7.5s-3.358 7.5-7.5 7.5z" fill="#f4dd45"/></g><g><path d="m288.632 412.733h-65.264c-4.142 0-7.5-3.357-7.5-7.5s3.358-7.5 7.5-7.5h65.264c4.143 0 7.5 3.357 7.5 7.5s-3.358 7.5-7.5 7.5z" fill="#f4dd45"/></g></g><path d="m215.463 107.482h-26.157l-7.89 6.138-3.466 7.362c-2.474 5.255-3.757 10.991-3.757 16.799v9.567c4.872-.259 9.216-2.502 12.243-5.936.698-.792 1.938-.792 2.636 0 3.221 3.654 7.934 5.961 13.189 5.961s9.967-2.307 13.189-5.961c.698-.792 1.938-.792 2.636 0 2.897 3.287 7.003 5.478 11.623 5.886v-10.211c0-5.361-1.093-10.666-3.213-15.591l-3.39-7.877z" fill="#ecbe6b"/><path d="m215.463 107.482h-14.534l6.032 14.015c2.073 4.815 3.156 9.994 3.204 15.234h.009v.357 8.382c2.006-1.016 3.802-2.386 5.275-4.057.698-.792 1.938-.792 2.636 0 2.897 3.287 7.003 5.478 11.623 5.886v-10.211c0-5.361-1.093-10.666-3.213-15.591l-3.39-7.877z" fill="#e7a561"/><g><path d="m199.307 75.622-17.891 37.997h41.689l-16.301-37.871c-1.401-3.254-5.988-3.332-7.497-.126z" fill="#ade092"/></g><g><path d="m203.57 113.62h19.534l-16.301-37.871c-1.401-3.255-5.988-3.332-7.497-.126l-6.317 13.415z" fill="#6dd4a1"/></g></g></svg>